<svg xmlns="http://www.w3.org/2000/svg" width="320" height="160" viewBox="0 0 320 160" fill="none">
  <defs>
    <linearGradient id="gold" x1="0" y1="0" x2="1" y2="0">
      <stop offset="0%" stop-color="#7A4A16"/>
      <stop offset="22%" stop-color="#C99739"/>
      <stop offset="48%" stop-color="#F7D98A"/>
      <stop offset="74%" stop-color="#B98026"/>
      <stop offset="100%" stop-color="#6A3D11"/>
    </linearGradient>
    <filter id="glow" x="-20%" y="-20%" width="140%" height="140%">
      <feGaussianBlur stdDeviation="4" result="b"/>
      <feMerge><feMergeNode in="b"/><feMergeNode in="SourceGraphic"/></feMerge>
    </filter>
  </defs>
  <g filter="url(#glow)">
    <path d="M294 80c-10-30-36-48-70-48-36 0-56 22-82 22-18 0-30-7-44-22 7 31 22 50 49 58-27 9-42 27-49 58 14-15 26-22 44-22 26 0 46 22 82 22 34 0 60-18 70-48z" fill="none" stroke="url(#gold)" stroke-width="8" stroke-linecap="round" stroke-linejoin="round"/>
    <path d="M208 80l-20-20-20 20 20 20 20-20z" fill="none" stroke="url(#gold)" stroke-width="5"/>
  </g>
</svg>